<svg xmlns="http://www.w3.org/2000/svg" version="1.1" xmlns:xlink="http://www.w3.org/1999/xlink" xmlns:svgjs="http://svgjs.dev/svgjs" width="1440" height="700" preserveAspectRatio="none" viewBox="0 0 1440 700"><g mask="url(&quot;#SvgjsMask1029&quot;)" fill="none"><rect width="1440" height="700" x="0" y="0" fill="#0e2a47"></rect><path d="M1145.62 67.45L1177.05 67.45L1177.05 98.88L1145.62 98.88z" fill="#e73635"></path><path d="M366.04 140.42 a63.02 63.02 0 1 0 126.04 0 a63.02 63.02 0 1 0 -126.04 0z" stroke="#037b0b"></path><path d="M214.59 541.64L268.22 541.64L268.22 595.27L214.59 595.27z" stroke="#d3b714"></path><path d="M374.54 234.78L432.31 234.78L432.31 287.42L374.54 287.42z" fill="#d3b714"></path><path d="M156.96 474.96L160.7 474.96L160.7 508.79L156.96 508.79z" fill="#037b0b"></path><path d="M583.99 251.89L618.58 251.89L618.58 286.48L583.99 286.48z" stroke="#d3b714"></path><path d="M431.19 117.01a15.9 15.9 0 1 0 3.84 31.57z" fill="#e73635"></path><path d="M559.11 549.68 a31.37 31.37 0 1 0 62.74 0 a31.37 31.37 0 1 0 -62.74 0z" fill="#d3b714"></path><path d="M418.69 553.63a8.42 8.42 0 1 0 1.91-16.73z" stroke="#e73635"></path><path d="M745.94 89.89L747.04 89.89L747.04 90.99L745.94 90.99z" fill="#d3b714"></path><path d="M187.56 237.76a66.38 66.38 0 1 0-130.19 26.02z" fill="#037b0b"></path><path d="M1115.38 414.99L1164.98 414.99L1164.98 464.59L1115.38 464.59z" stroke="#e73635"></path><path d="M1268.48 440.54L1272.41 440.54L1272.41 444.47L1268.48 444.47z" fill="#d3b714"></path><path d="M172.69 261.29a15.95 15.95 0 1 0-4.78 31.54z" fill="#e73635"></path><path d="M925.38 356.28L976.34 356.28L976.34 412.4L925.38 412.4z" stroke="#d3b714"></path><path d="M973.05 423.45a65.74 65.74 0 1 0 129.76 21.18z" stroke="#e73635"></path><path d="M1253.23 232.16L1305.65 232.16L1305.65 284.58L1253.23 284.58z" stroke="#d3b714"></path><path d="M228.22 134.45L271.61 134.45L271.61 177.84L228.22 177.84z" stroke="#e73635"></path><path d="M281.44 205.83L332.69 205.83L332.69 226.42L281.44 226.42z" fill="#d3b714"></path><path d="M346.85 297.07L348.49 297.07L348.49 298.71L346.85 298.71z" fill="#037b0b"></path><path d="M1135.55 162.34L1163.38 162.34L1163.38 188.78L1135.55 188.78z" fill="#e73635"></path><path d="M344.27 699.82L351.27 699.82L351.27 715.35L344.27 715.35z" stroke="#037b0b"></path><path d="M1024.42 462.92L1056.7 462.92L1056.7 486.06L1024.42 486.06z" stroke="#e73635"></path><path d="M296.48 281.09L324.82 281.09L324.82 309.43L296.48 309.43z" fill="#e73635"></path><path d="M946.48 227.67L957.31 227.67L957.31 238.5L946.48 238.5z" stroke="#e73635"></path><path d="M1051.5 162.91L1053.73 162.91L1053.73 165.14L1051.5 165.14z" stroke="#037b0b"></path></g><defs><mask id="SvgjsMask1029"><rect width="1440" height="700" fill="#ffffff"></rect></mask></defs></svg>